<svg xmlns="http://www.w3.org/2000/svg" xmlns:xlink="http://www.w3.org/1999/xlink" width="600" zoomAndPan="magnify" viewBox="0 0 450 449.999984" height="600" preserveAspectRatio="xMidYMid meet" version="1.0"><defs><g/><clipPath id="id1"><path d="M 97 323 L 370 323 L 370 450 L 97 450 Z M 97 323 " clip-rule="nonzero"/></clipPath><clipPath id="id2"><path d="M 29.753906 488.242188 L 122.363281 236.21875 L 394.097656 336.066406 L 301.488281 588.09375 Z M 29.753906 488.242188 " clip-rule="nonzero"/></clipPath><clipPath id="id3"><path d="M 29.753906 488.242188 L 122.363281 236.21875 L 394.097656 336.066406 L 301.488281 588.09375 Z M 29.753906 488.242188 " clip-rule="nonzero"/></clipPath><clipPath id="id4"><path d="M 101.1875 382 L 213.679688 382 L 213.679688 434.855469 L 101.1875 434.855469 Z M 101.1875 382 " clip-rule="nonzero"/></clipPath><clipPath id="id5"><path d="M 174.214844 159.636719 L 275.464844 159.636719 L 275.464844 260.886719 L 174.214844 260.886719 Z M 174.214844 159.636719 " clip-rule="nonzero"/></clipPath><clipPath id="id6"><path d="M 174.214844 159.636719 L 226 159.636719 L 226 260.886719 L 174.214844 260.886719 Z M 174.214844 159.636719 " clip-rule="nonzero"/></clipPath></defs><rect x="-45" width="540" fill="#ede9dd" y="-44.999998" height="539.99998" fill-opacity="1"/><rect x="-45" width="540" fill="#ffffff" y="-44.999998" height="539.99998" fill-opacity="1"/><rect x="-45" width="540" fill="#ede9dd" y="-44.999998" height="539.99998" fill-opacity="1"/><g clip-path="url(#id1)"><g clip-path="url(#id2)"><g clip-path="url(#id3)"><path fill="#544013" d="M 285.523438 492.585938 C 202.917969 551.851562 111.058594 426.761719 100.835938 399.558594 C 81.324219 347.894531 147.289062 307.964844 180.515625 337.847656 C 204.648438 359.523438 221.65625 384.589844 272.929688 342.351562 C 315.589844 307.238281 365.234375 327.257812 368.730469 353.1875 C 373.890625 391.058594 343.636719 450.859375 285.523438 492.585938 Z M 285.523438 492.585938 " fill-opacity="1" fill-rule="nonzero"/></g></g></g><path fill="#af8016" d="M 340.304688 359.03125 C 341.699219 357.945312 343 356.648438 344.183594 355.105469 C 360.628906 333.640625 322.960938 314.511719 308.601562 310.367188 C 304.914062 309.300781 300.777344 308.914062 296.429688 309.03125 C 296.4375 309.082031 296.441406 309.132812 296.449219 309.1875 C 296.441406 309.1875 296.4375 309.1875 296.433594 309.1875 L 296.292969 309.191406 L 296.273438 309.054688 C 295.894531 306.617188 294.902344 304.277344 293.402344 302.285156 C 293.367188 302.234375 293.324219 302.183594 293.285156 302.136719 L 293.191406 302.023438 L 293.199219 301.957031 C 294.109375 294.15625 291.6875 286.746094 287.023438 283.074219 C 284.535156 281.175781 281.984375 279.769531 279.222656 278.777344 L 279.191406 278.761719 L 279.167969 278.742188 C 274.847656 274.65625 268.1875 273.800781 263.355469 273.800781 C 259.347656 273.800781 254.960938 274.402344 251.007812 275.496094 C 243.035156 277.699219 240.433594 281.421875 240.152344 283.273438 C 240.101562 283.613281 240.152344 283.789062 240.195312 283.839844 L 240.433594 283.914062 L 240.242188 284.097656 C 239.855469 284.46875 239.554688 284.789062 239.289062 285.101562 C 236.957031 287.851562 236.105469 290.136719 236.757812 291.886719 C 237.394531 293.597656 239.429688 294.492188 240.980469 294.738281 L 241.117188 294.757812 L 241.113281 294.894531 C 241.101562 295.332031 241.09375 295.769531 241.09375 296.207031 L 241.09375 296.328125 L 240.976562 296.355469 C 238.265625 297.050781 235.925781 298.414062 234.382812 300.207031 C 233.003906 301.808594 232.132812 303.832031 231.863281 306.058594 C 231.429688 309.625 232.558594 313.390625 234.886719 316.121094 C 236.894531 318.476562 239.832031 320.167969 242.941406 320.753906 L 243.042969 320.769531 L 243.066406 320.867188 C 243.140625 321.160156 243.214844 321.445312 243.292969 321.734375 C 243.601562 322.863281 244.066406 324.03125 244.679688 325.210938 L 244.742188 325.339844 L 244.625 325.414062 C 244.621094 325.417969 244.617188 325.421875 244.613281 325.421875 C 244.589844 325.375 244.5625 325.332031 244.539062 325.28125 C 243.890625 325.707031 243.414062 326.066406 243.140625 326.339844 C 241.71875 326.839844 240.367188 327.363281 239.167969 327.84375 C 231.882812 330.875 227.332031 338.460938 224.90625 345.4375 C 222.476562 351.804688 220.351562 360.601562 214.585938 364.546875 C 208.863281 368.261719 201.527344 369.285156 194.859375 370.148438 C 194.855469 370.203125 194.851562 370.257812 194.84375 370.308594 C 194.695312 370.332031 194.546875 370.351562 194.398438 370.367188 L 193.667969 370.460938 C 193.523438 370.484375 193.378906 370.503906 193.234375 370.527344 C 193.238281 370.472656 193.246094 370.417969 193.253906 370.363281 C 187.011719 371.257812 180.792969 372.214844 175.738281 376.375 C 172.621094 378.898438 170.527344 382.214844 169.832031 385.730469 C 169.644531 385.746094 169.429688 385.765625 169.183594 385.789062 C 169.328125 385.828125 169.472656 385.867188 169.617188 385.90625 C 168.121094 386.042969 166.828125 386.230469 165.734375 386.472656 C 165.621094 386.441406 165.507812 386.410156 165.394531 386.378906 C 163.230469 386.890625 161.1875 387.792969 161.132812 389.417969 C 161.125 389.675781 161.167969 390 161.246094 390.367188 C 161.257812 390.417969 161.273438 390.472656 161.285156 390.523438 L 160.414062 390.582031 C 159.058594 390.671875 157.65625 390.765625 156.386719 390.917969 L 156.347656 390.921875 L 156.3125 390.90625 C 143.753906 386.136719 134.464844 382.757812 132.644531 382.304688 C 132.414062 382.246094 132.125 382.214844 131.785156 382.214844 C 125.296875 382.214844 103.347656 392.550781 101.59375 397.300781 C 101.378906 397.878906 101.476562 398.335938 101.898438 398.695312 C 106.445312 402.574219 181.144531 434.699219 188.703125 434.699219 C 188.832031 434.699219 188.933594 434.691406 189.015625 434.671875 C 193.367188 433.628906 211.839844 421 213.273438 415.746094 C 213.441406 415.136719 213.359375 414.683594 213.019531 414.355469 C 212.488281 413.839844 209.960938 412.425781 200.945312 408.605469 L 200.972656 408.460938 C 200.984375 408.460938 200.992188 408.460938 201.007812 408.460938 C 207.941406 408.398438 214.992188 407.015625 221.261719 404.886719 C 223.46875 404.179688 225.589844 403.367188 227.644531 402.457031 C 226.304688 404.898438 225.644531 407.070312 225.585938 408.984375 C 225.636719 408.972656 225.691406 408.964844 225.746094 408.953125 C 225.746094 408.964844 225.742188 408.976562 225.742188 408.988281 L 225.738281 409.109375 L 225.625 409.136719 C 224.214844 409.492188 223.210938 410.234375 222.375 411.53125 C 222.101562 411.976562 221.863281 412.484375 221.667969 413.035156 L 221.648438 413.097656 L 221.585938 413.125 C 219.890625 413.871094 218.3125 414.828125 216.882812 415.972656 C 213.875 418.386719 213.570312 421.242188 213.65625 422.730469 C 213.785156 424.976562 214.851562 426.628906 215.789062 427.21875 C 218.386719 428.851562 226.789062 430.226562 234.136719 430.226562 C 242.921875 430.226562 248.484375 428.414062 249.398438 425.25 L 249.421875 425.183594 C 249.464844 425.21875 249.507812 425.257812 249.550781 425.292969 C 250.148438 425.734375 250.753906 426.042969 251.367188 426.15625 C 253.253906 426.53125 257.285156 427.214844 259.925781 427.0625 C 264.503906 429.976562 269.398438 432.015625 273.644531 432.597656 C 298.570312 436.671875 331.601562 429.78125 345.652344 408.039062 C 355.253906 393.226562 350.097656 374.511719 340.304688 359.03125 " fill-opacity="1" fill-rule="nonzero"/><path fill="#e8b594" d="M 162.984375 397.78125 C 161.160156 397.78125 158.410156 398.871094 157.101562 400.117188 C 157.050781 400.167969 156.984375 400.191406 156.921875 400.191406 C 156.851562 400.191406 156.785156 400.164062 156.730469 400.109375 C 156.632812 400.007812 156.636719 399.839844 156.742188 399.742188 C 158.15625 398.394531 161.015625 397.257812 162.984375 397.257812 C 163.128906 397.257812 163.246094 397.371094 163.246094 397.519531 C 163.246094 397.664062 163.128906 397.78125 162.984375 397.78125 Z M 154.320312 396.714844 C 151.621094 397.824219 149.195312 398.988281 146.914062 400.285156 C 146.871094 400.308594 146.828125 400.320312 146.785156 400.320312 C 146.691406 400.320312 146.605469 400.273438 146.554688 400.1875 C 146.484375 400.0625 146.527344 399.902344 146.652344 399.832031 C 148.957031 398.523438 151.402344 397.347656 154.117188 396.230469 C 155.488281 395.644531 156.785156 395.375 158.289062 395.066406 C 158.800781 394.960938 159.335938 394.851562 159.894531 394.722656 C 160.035156 394.6875 160.175781 394.777344 160.207031 394.917969 C 160.238281 395.058594 160.152344 395.199219 160.011719 395.230469 C 159.445312 395.359375 158.910156 395.472656 158.398438 395.578125 C 156.921875 395.882812 155.648438 396.148438 154.320312 396.714844 Z M 152.164062 393.683594 C 153.832031 393.191406 155.722656 392.628906 157.78125 392.628906 C 157.925781 392.628906 158.042969 392.746094 158.042969 392.890625 C 158.042969 393.035156 157.925781 393.152344 157.78125 393.152344 C 155.796875 393.152344 153.945312 393.699219 152.3125 394.183594 C 152.289062 394.191406 152.265625 394.195312 152.242188 394.195312 C 152.125 394.195312 152.023438 394.121094 151.988281 394.007812 C 151.949219 393.871094 152.027344 393.726562 152.164062 393.683594 Z M 161.246094 390.367188 C 159.605469 390.480469 157.90625 390.578125 156.367188 390.761719 C 154.316406 391.007812 152.558594 391.40625 151.617188 392.210938 C 150.984375 392.753906 150.988281 394.457031 150.300781 394.777344 C 149.613281 395.097656 148.253906 395.800781 147.011719 396.757812 C 145.277344 398.179688 142.882812 400.007812 145.371094 401.148438 C 143.496094 402.425781 142.039062 403.917969 142.71875 405.003906 C 143.726562 406.617188 146.1875 404.851562 149.425781 403.277344 C 152.660156 401.703125 154.808594 400.683594 155.210938 401.089844 C 155.617188 401.492188 147.375 407.269531 149.027344 408.617188 C 150.679688 409.964844 153.558594 408.371094 154.78125 407.636719 C 159.4375 405.679688 161.457031 400.84375 167.09375 402.3125 C 169.726562 402.921875 166.664062 404.402344 164.832031 406.4375 C 164.707031 406.582031 164.582031 406.726562 164.472656 406.875 C 164.242188 407.167969 164.050781 407.472656 163.910156 407.785156 C 162.683594 410.511719 165.984375 411.304688 169.296875 409.867188 C 169.820312 409.640625 170.398438 409.359375 171.003906 409.039062 C 171.195312 408.941406 171.386719 408.835938 171.582031 408.726562 C 172.605469 408.160156 173.6875 407.484375 174.730469 406.738281 C 168.589844 405.574219 162.160156 394.59375 161.246094 390.367188 " fill-opacity="1" fill-rule="nonzero"/><path fill="#e8b594" d="M 236.449219 417.988281 C 234.753906 417.847656 231.496094 418 230.03125 419.464844 C 229.472656 420.019531 229.226562 420.730469 229.296875 421.566406 C 229.308594 421.710938 229.199219 421.839844 229.058594 421.851562 C 229.050781 421.851562 229.042969 421.851562 229.035156 421.851562 C 228.898438 421.851562 228.785156 421.75 228.773438 421.609375 C 228.691406 420.613281 228.988281 419.765625 229.660156 419.09375 C 231.160156 417.597656 234.28125 417.28125 236.492188 417.464844 C 236.636719 417.480469 236.746094 417.605469 236.730469 417.75 C 236.71875 417.894531 236.585938 418 236.449219 417.988281 Z M 224.324219 418.730469 C 224.289062 418.839844 224.1875 418.910156 224.078125 418.910156 C 224.050781 418.910156 224.019531 418.90625 223.996094 418.894531 C 223.859375 418.847656 223.78125 418.703125 223.828125 418.566406 C 225.3125 414.078125 229.25 413.347656 233.285156 413.226562 C 233.429688 413.230469 233.546875 413.335938 233.554688 413.480469 C 233.558594 413.621094 233.445312 413.746094 233.296875 413.75 C 229.457031 413.863281 225.707031 414.546875 224.324219 418.730469 Z M 227.96875 409.058594 C 229.636719 408.71875 231.566406 408.820312 233.558594 409.34375 C 233.699219 409.378906 233.785156 409.523438 233.746094 409.660156 C 233.714844 409.78125 233.609375 409.855469 233.496094 409.855469 C 233.472656 409.855469 233.449219 409.855469 233.425781 409.847656 C 231.511719 409.34375 229.660156 409.25 228.074219 409.570312 C 227.929688 409.597656 227.792969 409.507812 227.765625 409.367188 C 227.734375 409.222656 227.828125 409.085938 227.96875 409.058594 Z M 241.363281 407.628906 C 239.542969 407.15625 237.804688 406.609375 236.089844 406.265625 C 233.347656 405.6875 228.019531 404.78125 226.847656 408.511719 L 227.007812 408.746094 C 226.523438 408.796875 226.046875 408.867188 225.585938 408.984375 C 224.347656 409.296875 223.210938 409.945312 222.242188 411.449219 C 221.953125 411.921875 221.714844 412.441406 221.523438 412.980469 C 221.140625 414.050781 220.96875 415.203125 221.109375 416.265625 C 221.132812 416.4375 221.160156 416.613281 221.199219 416.785156 C 221.390625 417.882812 222.265625 418.921875 222.675781 419.945312 C 222.25 420.78125 221.808594 421.636719 221.40625 422.554688 C 220.949219 423.535156 219.511719 425.675781 220.78125 426.375 C 221.636719 426.980469 223.476562 426.421875 224.25 425.957031 C 225.789062 425.019531 225.933594 423.527344 227.0625 422.492188 C 227.230469 422.375 227.753906 422.199219 228.480469 421.988281 C 228.449219 422.15625 228.425781 422.332031 228.410156 422.515625 C 228.375 423.730469 229.019531 425.023438 229.109375 426.09375 C 229.195312 427.160156 228.949219 429.066406 230.199219 429.503906 C 231.589844 430.058594 232.90625 428.066406 233.085938 426.976562 C 233.492188 425.328125 232.867188 424.300781 234.382812 423.101562 C 236.792969 421.285156 239.847656 422.378906 242.453125 422.972656 C 244.472656 423.371094 246.421875 423.816406 248.375 424.234375 C 245.90625 421.644531 243.773438 417.160156 242.621094 414.855469 C 241.730469 412.777344 241.230469 410.113281 241.363281 407.628906 " fill-opacity="1" fill-rule="nonzero"/><path fill="#e8b594" d="M 265.058594 337.746094 C 264.535156 337.820312 264.039062 337.875 263.566406 337.910156 C 264.039062 337.875 264.535156 337.820312 265.058594 337.746094 " fill-opacity="1" fill-rule="nonzero"/><path fill="#e8b594" d="M 253.707031 322.867188 C 252.875 323.070312 251.675781 323.125 250.570312 323.125 C 249.148438 323.125 247.890625 323.03125 247.800781 323.023438 C 247.652344 323.011719 247.546875 322.886719 247.558594 322.742188 C 247.566406 322.597656 247.707031 322.492188 247.839844 322.503906 C 247.878906 322.503906 251.765625 322.796875 253.601562 322.355469 C 255.429688 322.039062 257.921875 320.734375 258.746094 319.296875 C 258.816406 319.167969 258.976562 319.128906 259.101562 319.199219 C 259.226562 319.273438 259.269531 319.429688 259.199219 319.554688 C 258.273438 321.171875 255.628906 322.535156 253.707031 322.867188 Z M 246.71875 318.539062 C 245.972656 317.449219 245.941406 315.804688 246.632812 314.023438 C 247.242188 312.503906 249.90625 307.890625 250.019531 307.695312 C 250.09375 307.570312 250.25 307.527344 250.378906 307.597656 C 250.503906 307.667969 250.546875 307.832031 250.472656 307.957031 C 250.445312 308.003906 247.714844 312.734375 247.121094 314.214844 C 246.492188 315.828125 246.503906 317.296875 247.152344 318.242188 C 247.742188 319.105469 248.832031 319.542969 250.398438 319.542969 C 250.542969 319.542969 250.660156 319.660156 250.660156 319.804688 C 250.660156 319.949219 250.542969 320.066406 250.398438 320.066406 C 248.648438 320.066406 247.410156 319.550781 246.71875 318.539062 Z M 254.910156 302.226562 C 256.230469 302.003906 266.867188 300.597656 267.144531 301.777344 C 267.207031 302.03125 266.957031 302.328125 266.496094 302.65625 C 265.914062 304.289062 264.769531 305.800781 263.480469 306.964844 C 265.160156 306.800781 266.558594 306.828125 266.644531 307.078125 C 266.804688 307.558594 263.378906 308.390625 262.625 308.476562 C 263.40625 309.207031 263.398438 310.582031 262.421875 311.328125 C 261.613281 311.949219 260.367188 312.039062 259.46875 311.585938 C 258.757812 311.226562 258.140625 310.121094 258.191406 309.679688 C 258.21875 309.460938 257.113281 309.789062 256.839844 309.699219 C 256.640625 309.632812 256.46875 309.226562 257.402344 308.628906 C 256.582031 308.0625 256.054688 307.378906 255.730469 306.773438 C 254.773438 306.855469 253.933594 306.574219 253.476562 305.445312 C 253.019531 304.507812 253.59375 302.445312 254.910156 302.226562 Z M 283.824219 326.488281 C 283.1875 325.53125 282.980469 324.351562 283.023438 323.085938 C 281.519531 323.105469 280.019531 322.765625 278.609375 322.167969 C 274.210938 325.457031 267.589844 327.199219 262.792969 327.300781 C 262.660156 327.984375 261.589844 328.605469 260.238281 328.542969 C 258.699219 328.46875 257.949219 327.554688 258.394531 326.339844 C 258.769531 325.320312 259.660156 325.359375 261.585938 326.023438 C 262.183594 326.230469 262.539062 326.496094 262.703125 326.777344 C 267.316406 326.683594 273.722656 324.980469 278.03125 321.90625 C 276.183594 321.015625 274.511719 319.691406 273.214844 318.171875 C 270.84375 315.386719 269.71875 311.566406 270.152344 307.988281 C 270.414062 305.828125 271.242188 303.753906 272.710938 302.050781 C 273.867188 300.710938 275.378906 299.675781 277.0625 298.945312 C 276.636719 296.519531 275.988281 293.738281 275 291.046875 C 273.082031 295.648438 265.425781 293.8125 264.226562 294.261719 C 263.011719 294.71875 262.8125 298.949219 257.679688 298.648438 C 254.421875 298.457031 253.433594 296.828125 251.609375 297.738281 C 249.5625 298.878906 247.621094 301.292969 244.28125 299.472656 C 240.945312 297.652344 245.007812 294.25 241.824219 294.933594 C 241.671875 294.964844 241.355469 294.957031 240.957031 294.890625 C 240.945312 295.332031 240.9375 295.769531 240.9375 296.203125 C 240.925781 298.371094 241.019531 300.476562 241.035156 302.242188 C 241.035156 302.511719 241.039062 302.820312 241.042969 303.15625 C 242.507812 302.777344 246.289062 302.757812 247.628906 303.054688 C 249.28125 303.421875 249 305.050781 248.542969 305.992188 C 248.382812 306.386719 248.183594 306.648438 247.953125 306.816406 C 248.078125 307.8125 247.929688 308.839844 247.472656 309.371094 C 247.640625 309.492188 247.730469 309.585938 247.71875 309.625 C 247.605469 309.902344 244.945312 308.949219 245.058594 309.292969 C 245.421875 310.371094 245.175781 311.429688 244.25 311.933594 C 243.363281 312.417969 242.488281 312.328125 241.65625 311.734375 C 241.5625 311.664062 241.476562 311.574219 241.398438 311.476562 C 241.660156 314.441406 242.117188 317.726562 242.914062 320.90625 C 242.988281 321.199219 243.0625 321.488281 243.140625 321.777344 C 243.464844 322.957031 243.945312 324.144531 244.539062 325.285156 C 246.714844 329.484375 250.367188 333.042969 252.941406 333.277344 C 253.914062 333.367188 254.945312 333.371094 256.011719 333.300781 C 263.527344 332.824219 272.972656 328.691406 278.460938 324.066406 C 278.460938 324.066406 278.464844 324.066406 278.464844 324.066406 C 278.085938 324.648438 277.691406 325.222656 277.296875 325.785156 C 275.214844 328.742188 273.09375 331.722656 270.507812 334.269531 C 269.324219 335.433594 268.078125 336.488281 266.78125 337.441406 C 268.644531 337.0625 270.714844 336.5 272.839844 335.832031 C 276.671875 333.730469 280.820312 330.652344 285.148438 327.683594 C 284.613281 327.394531 284.160156 327.007812 283.824219 326.488281 " fill-opacity="1" fill-rule="nonzero"/><path fill="#e8b594" d="M 266.78125 337.441406 C 266.78125 337.441406 266.78125 337.441406 266.785156 337.441406 C 266.59375 337.480469 266.402344 337.515625 266.214844 337.550781 C 266.402344 337.515625 266.589844 337.480469 266.78125 337.441406 " fill-opacity="1" fill-rule="nonzero"/><path fill="#e8b594" d="M 243.996094 307.898438 C 243.1875 307 242.402344 305.933594 241.648438 305.03125 C 241.414062 304.890625 241.21875 304.753906 241.058594 304.621094 C 241.078125 305.683594 241.113281 306.933594 241.179688 308.300781 C 241.851562 307.699219 242.917969 307.671875 243.996094 307.898438 " fill-opacity="1" fill-rule="nonzero"/><path fill="#e8b594" d="M 236.492188 417.464844 C 234.28125 417.28125 231.160156 417.597656 229.660156 419.09375 C 228.988281 419.765625 228.691406 420.609375 228.773438 421.609375 C 228.785156 421.75 228.898438 421.851562 229.035156 421.851562 C 229.042969 421.851562 229.050781 421.851562 229.058594 421.851562 C 229.199219 421.839844 229.308594 421.710938 229.296875 421.566406 C 229.226562 420.730469 229.472656 420.023438 230.03125 419.464844 C 231.496094 418 234.753906 417.847656 236.449219 417.988281 C 236.585938 418 236.71875 417.894531 236.730469 417.75 C 236.746094 417.605469 236.636719 417.480469 236.492188 417.464844 " fill-opacity="1" fill-rule="nonzero"/><path fill="#e8b594" d="M 233.550781 413.480469 C 233.546875 413.335938 233.429688 413.230469 233.285156 413.226562 C 229.25 413.347656 225.3125 414.078125 223.828125 418.566406 C 223.78125 418.703125 223.859375 418.847656 223.996094 418.894531 C 224.019531 418.90625 224.046875 418.910156 224.078125 418.910156 C 224.183594 418.910156 224.289062 418.839844 224.324219 418.730469 C 225.707031 414.546875 229.457031 413.863281 233.296875 413.75 C 233.445312 413.746094 233.554688 413.621094 233.550781 413.480469 " fill-opacity="1" fill-rule="nonzero"/><path fill="#e8b594" d="M 228.074219 409.570312 C 229.660156 409.25 231.511719 409.34375 233.425781 409.847656 C 233.449219 409.855469 233.472656 409.855469 233.492188 409.855469 C 233.609375 409.855469 233.714844 409.78125 233.746094 409.660156 C 233.78125 409.523438 233.699219 409.378906 233.558594 409.34375 C 231.566406 408.820312 229.632812 408.71875 227.96875 409.058594 C 227.828125 409.085938 227.734375 409.222656 227.765625 409.367188 C 227.792969 409.507812 227.929688 409.597656 228.074219 409.570312 " fill-opacity="1" fill-rule="nonzero"/><path fill="#e8b594" d="M 278.460938 324.066406 C 272.972656 328.691406 263.527344 332.824219 256.011719 333.300781 C 256.140625 333.644531 256.292969 333.976562 256.46875 334.300781 C 256.648438 334.628906 256.851562 334.949219 257.082031 335.25 C 257.308594 335.554688 257.5625 335.839844 257.839844 336.105469 C 258.117188 336.371094 258.421875 336.617188 258.753906 336.835938 C 259.078125 337.054688 259.433594 337.246094 259.8125 337.40625 C 260.191406 337.566406 260.597656 337.699219 261.027344 337.796875 C 261.179688 337.832031 261.34375 337.859375 261.511719 337.878906 C 261.546875 337.882812 261.582031 337.886719 261.621094 337.890625 C 261.789062 337.914062 261.96875 337.925781 262.152344 337.933594 C 262.171875 337.9375 262.191406 337.9375 262.210938 337.9375 C 262.390625 337.945312 262.582031 337.949219 262.773438 337.945312 C 262.800781 337.945312 262.824219 337.945312 262.851562 337.945312 C 263.058594 337.941406 263.277344 337.929688 263.503906 337.914062 C 263.523438 337.914062 263.542969 337.914062 263.566406 337.910156 C 264.039062 337.878906 264.535156 337.824219 265.058594 337.746094 C 265.070312 337.742188 265.082031 337.742188 265.09375 337.742188 C 265.632812 337.660156 266.195312 337.5625 266.78125 337.441406 C 268.078125 336.488281 269.324219 335.433594 270.507812 334.269531 C 273.09375 331.722656 275.214844 328.746094 277.296875 325.785156 C 277.691406 325.222656 278.085938 324.648438 278.464844 324.066406 C 278.464844 324.066406 278.464844 324.066406 278.460938 324.066406 " fill-opacity="1" fill-rule="nonzero"/><path fill="#e8b594" d="M 257.402344 308.628906 C 257.746094 308.414062 258.230469 308.167969 258.917969 307.910156 C 260.152344 307.4375 261.933594 307.121094 263.480469 306.964844 C 264.769531 305.800781 265.914062 304.292969 266.496094 302.65625 C 264.828125 303.835938 260.367188 305.347656 257.742188 306.269531 C 257.070312 306.507812 256.375 306.71875 255.730469 306.773438 C 256.054688 307.378906 256.585938 308.0625 257.402344 308.628906 " fill-opacity="1" fill-rule="nonzero"/><path fill="#e8b594" d="M 247.953125 306.816406 C 247.085938 307.457031 245.773438 306.734375 244.449219 306.269531 C 243.175781 305.820312 242.269531 305.410156 241.648438 305.03125 C 242.402344 305.933594 243.1875 307 243.996094 307.898438 C 245.445312 308.207031 246.910156 308.960938 247.476562 309.371094 C 247.929688 308.839844 248.078125 307.8125 247.953125 306.816406 " fill-opacity="1" fill-rule="nonzero"/><path fill="#e8b594" d="M 250.660156 319.804688 C 250.660156 319.660156 250.542969 319.542969 250.398438 319.542969 C 248.832031 319.542969 247.738281 319.105469 247.148438 318.242188 C 246.503906 317.296875 246.492188 315.828125 247.121094 314.214844 C 247.714844 312.734375 250.445312 308.003906 250.472656 307.957031 C 250.546875 307.832031 250.503906 307.667969 250.375 307.597656 C 250.25 307.527344 250.09375 307.570312 250.019531 307.695312 C 249.90625 307.890625 247.242188 312.503906 246.632812 314.023438 C 245.9375 315.804688 245.96875 317.449219 246.714844 318.539062 C 247.410156 319.550781 248.648438 320.066406 250.398438 320.066406 C 250.542969 320.066406 250.660156 319.949219 250.660156 319.804688 " fill-opacity="1" fill-rule="nonzero"/><path fill="#e8b594" d="M 259.199219 319.554688 C 259.269531 319.429688 259.226562 319.273438 259.101562 319.199219 C 258.976562 319.128906 258.816406 319.167969 258.742188 319.296875 C 257.921875 320.734375 255.429688 322.039062 253.601562 322.355469 C 251.765625 322.796875 247.875 322.503906 247.839844 322.503906 C 247.707031 322.492188 247.566406 322.597656 247.558594 322.742188 C 247.546875 322.886719 247.652344 323.011719 247.796875 323.023438 C 247.890625 323.03125 249.148438 323.125 250.570312 323.125 C 251.671875 323.125 252.875 323.070312 253.707031 322.867188 C 255.628906 322.535156 258.273438 321.171875 259.199219 319.554688 " fill-opacity="1" fill-rule="nonzero"/><path fill="#e8b594" d="M 162.984375 397.257812 C 161.015625 397.257812 158.15625 398.394531 156.742188 399.742188 C 156.636719 399.839844 156.632812 400.003906 156.730469 400.109375 C 156.785156 400.164062 156.851562 400.191406 156.921875 400.191406 C 156.984375 400.191406 157.050781 400.164062 157.101562 400.117188 C 158.410156 398.871094 161.160156 397.78125 162.984375 397.78125 C 163.128906 397.78125 163.246094 397.660156 163.246094 397.519531 C 163.246094 397.371094 163.128906 397.257812 162.984375 397.257812 " fill-opacity="1" fill-rule="nonzero"/><path fill="#e8b594" d="M 160.011719 395.230469 C 160.152344 395.199219 160.238281 395.058594 160.207031 394.917969 C 160.175781 394.777344 160.035156 394.6875 159.894531 394.722656 C 159.335938 394.851562 158.800781 394.960938 158.289062 395.066406 C 156.785156 395.378906 155.488281 395.644531 154.117188 396.234375 C 151.402344 397.347656 148.960938 398.523438 146.652344 399.832031 C 146.527344 399.902344 146.484375 400.0625 146.554688 400.1875 C 146.605469 400.273438 146.691406 400.320312 146.785156 400.320312 C 146.828125 400.320312 146.871094 400.308594 146.914062 400.285156 C 149.199219 398.992188 151.621094 397.824219 154.320312 396.714844 C 155.648438 396.148438 156.921875 395.882812 158.398438 395.578125 C 158.910156 395.472656 159.445312 395.359375 160.011719 395.230469 " fill-opacity="1" fill-rule="nonzero"/><path fill="#e8b594" d="M 152.242188 394.195312 C 152.265625 394.195312 152.289062 394.191406 152.3125 394.183594 C 153.945312 393.699219 155.796875 393.152344 157.78125 393.152344 C 157.925781 393.152344 158.042969 393.035156 158.042969 392.890625 C 158.042969 392.746094 157.925781 392.628906 157.78125 392.628906 C 155.722656 392.628906 153.832031 393.1875 152.164062 393.683594 C 152.027344 393.722656 151.949219 393.867188 151.988281 394.007812 C 152.023438 394.121094 152.125 394.195312 152.242188 394.195312 " fill-opacity="1" fill-rule="nonzero"/><g clip-path="url(#id4)"><path fill="#3c5064" d="M 189.113281 430.605469 C 189.015625 430.628906 188.890625 430.640625 188.742188 430.640625 C 181.625 430.640625 118.96875 403.886719 104.46875 396.238281 L 104.710938 395.773438 C 119.105469 403.367188 184.386719 431.1875 188.992188 430.097656 C 192.457031 429.265625 205.21875 420.878906 210.78125 414.8125 L 211.167969 415.167969 C 205.75 421.074219 193.019531 429.667969 189.113281 430.605469 Z M 213.128906 414.242188 C 212.28125 413.421875 207.652344 411.277344 201.007812 408.460938 C 194.488281 408.519531 188.074219 407.402344 182.503906 404.621094 C 181.207031 405.601562 179.222656 406.53125 176.246094 406.820312 C 175.746094 406.867188 175.234375 406.832031 174.726562 406.738281 C 173.6875 407.484375 172.605469 408.160156 171.582031 408.726562 C 172.703125 409.246094 173.601562 409.8125 173.988281 410.4375 C 174.175781 410.769531 174.140625 411.175781 173.898438 411.585938 C 173.269531 412.648438 171.3125 413.753906 169.113281 413.753906 C 169.03125 413.753906 168.945312 413.75 168.863281 413.75 C 165.886719 413.632812 158.339844 411.039062 157.816406 409.710938 C 157.738281 409.5 157.710938 409.144531 158.054688 408.636719 C 158.863281 407.453125 161.265625 406.078125 163.152344 406.078125 C 163.523438 406.078125 163.867188 406.128906 164.175781 406.230469 C 164.371094 406.296875 164.59375 406.363281 164.832031 406.4375 C 166.664062 404.402344 169.726562 402.921875 167.09375 402.3125 C 161.457031 400.84375 159.4375 405.679688 154.78125 407.636719 C 153.558594 408.371094 150.679688 409.964844 149.027344 408.617188 C 147.375 407.269531 155.617188 401.492188 155.210938 401.089844 C 154.808594 400.683594 152.660156 401.703125 149.425781 403.277344 C 146.1875 404.851562 143.726562 406.617188 142.71875 405.003906 C 142.039062 403.917969 143.496094 402.425781 145.371094 401.148438 C 142.882812 400.007812 145.277344 398.179688 147.011719 396.757812 C 148.253906 395.800781 149.613281 395.097656 150.300781 394.777344 C 150.988281 394.457031 150.984375 392.753906 151.617188 392.210938 C 152.558594 391.402344 154.316406 391.007812 156.367188 390.761719 C 144.292969 386.171875 134.570312 382.621094 132.683594 382.152344 C 127.214844 380.789062 97.230469 394.910156 101.800781 398.8125 C 106.367188 402.714844 183.898438 436.058594 189.054688 434.824219 C 194.207031 433.585938 216.71875 417.707031 213.128906 414.242188 " fill-opacity="1" fill-rule="nonzero"/></g><path fill="#3c5064" d="M 164.472656 406.875 C 164.308594 406.824219 164.148438 406.773438 164.011719 406.726562 C 163.753906 406.640625 163.464844 406.601562 163.152344 406.601562 C 161.449219 406.601562 159.210938 407.875 158.488281 408.933594 C 158.320312 409.175781 158.253906 409.390625 158.304688 409.519531 C 158.675781 410.464844 165.796875 413.109375 168.882812 413.226562 C 170.964844 413.304688 172.886719 412.273438 173.445312 411.320312 C 173.550781 411.148438 173.648438 410.898438 173.539062 410.703125 C 173.171875 410.113281 172.203125 409.554688 171.003906 409.039062 C 170.398438 409.359375 169.820312 409.640625 169.296875 409.867188 C 165.984375 411.304688 162.683594 410.511719 163.910156 407.785156 C 164.050781 407.472656 164.242188 407.167969 164.472656 406.875 " fill-opacity="1" fill-rule="nonzero"/><path fill="#3c5064" d="M 242.453125 422.972656 C 239.847656 422.382812 236.792969 421.285156 234.382812 423.101562 C 232.867188 424.304688 233.492188 425.328125 233.085938 426.976562 C 232.90625 428.066406 231.589844 430.0625 230.199219 429.503906 C 228.949219 429.066406 229.195312 427.164062 229.109375 426.09375 C 229.019531 425.023438 228.375 423.730469 228.410156 422.515625 C 228.425781 422.332031 228.449219 422.160156 228.480469 421.988281 C 227.753906 422.199219 227.230469 422.375 227.0625 422.492188 C 225.933594 423.527344 225.789062 425.019531 224.25 425.957031 C 223.476562 426.421875 221.636719 426.980469 220.78125 426.375 C 219.511719 425.675781 220.949219 423.535156 221.40625 422.558594 C 221.808594 421.636719 222.25 420.78125 222.675781 419.945312 C 222.265625 418.925781 221.390625 417.882812 221.199219 416.785156 C 218.785156 417.121094 216.976562 419.332031 215.871094 421.171875 C 215.824219 421.253906 215.738281 421.296875 215.648438 421.296875 C 215.601562 421.296875 215.554688 421.289062 215.515625 421.261719 C 215.390625 421.1875 215.347656 421.027344 215.425781 420.902344 C 217.074219 418.15625 219.03125 416.5625 221.109375 416.265625 C 220.96875 415.203125 221.140625 414.050781 221.523438 412.980469 C 219.957031 413.667969 218.351562 414.59375 216.789062 415.847656 C 211.667969 419.957031 213.488281 425.957031 215.707031 427.351562 C 220.6875 430.476562 247.324219 432.996094 249.554688 425.289062 C 249.15625 424.992188 248.761719 424.640625 248.375 424.234375 C 246.421875 423.816406 244.472656 423.371094 242.453125 422.972656 " fill-opacity="1" fill-rule="nonzero"/><path fill="#3c5064" d="M 167.128906 388.53125 C 167.269531 388.511719 167.371094 388.382812 167.351562 388.234375 C 167.335938 388.09375 167.199219 387.988281 167.058594 388.011719 L 166.796875 388.046875 C 166.085938 388.136719 165.28125 388.238281 164.566406 388.238281 C 164.429688 388.242188 164.304688 388.351562 164.300781 388.496094 C 164.300781 388.640625 164.414062 388.757812 164.5625 388.761719 C 164.582031 388.761719 164.605469 388.761719 164.625 388.761719 C 165.363281 388.761719 166.160156 388.65625 166.867188 388.5625 L 167.128906 388.53125 " fill-opacity="1" fill-rule="nonzero"/><path fill="#3c5064" d="M 165.304688 393.164062 C 165.308594 393.164062 165.316406 393.164062 165.320312 393.164062 C 166.40625 393.105469 167.511719 392.679688 168.578125 392.265625 C 168.710938 392.210938 168.777344 392.058594 168.726562 391.925781 C 168.671875 391.789062 168.523438 391.726562 168.386719 391.777344 C 167.359375 392.175781 166.296875 392.589844 165.292969 392.640625 C 165.148438 392.648438 165.035156 392.769531 165.042969 392.914062 C 165.050781 393.054688 165.164062 393.164062 165.304688 393.164062 " fill-opacity="1" fill-rule="nonzero"/><path fill="#3c5064" d="M 168.019531 397.015625 C 168.042969 397.015625 168.066406 397.015625 168.089844 397.007812 C 168.332031 396.941406 168.578125 396.878906 168.824219 396.820312 C 169.570312 396.632812 170.347656 396.441406 171.070312 396.058594 C 171.195312 395.988281 171.246094 395.832031 171.179688 395.703125 C 171.109375 395.574219 170.953125 395.527344 170.824219 395.597656 C 170.160156 395.953125 169.449219 396.125 168.699219 396.3125 C 168.449219 396.375 168.199219 396.433594 167.949219 396.503906 C 167.808594 396.542969 167.730469 396.6875 167.765625 396.824219 C 167.800781 396.941406 167.90625 397.015625 168.019531 397.015625 " fill-opacity="1" fill-rule="nonzero"/><path fill="#3c5064" d="M 174.359375 399.640625 C 174.496094 399.601562 174.578125 399.457031 174.539062 399.316406 C 174.5 399.179688 174.359375 399.097656 174.21875 399.136719 C 173.867188 399.234375 173.519531 399.367188 173.148438 399.507812 C 172.597656 399.71875 172.023438 399.933594 171.429688 400.03125 C 171.285156 400.054688 171.191406 400.1875 171.214844 400.332031 C 171.234375 400.460938 171.347656 400.550781 171.472656 400.550781 C 171.484375 400.550781 171.5 400.550781 171.515625 400.546875 C 172.160156 400.441406 172.757812 400.214844 173.335938 399.996094 C 173.691406 399.859375 174.03125 399.730469 174.359375 399.640625 " fill-opacity="1" fill-rule="nonzero"/><path fill="#3c5064" d="M 174.78125 404.003906 C 174.804688 404.003906 174.828125 404 174.851562 403.992188 C 175.097656 403.925781 175.34375 403.863281 175.589844 403.804688 C 176.335938 403.617188 177.109375 403.425781 177.832031 403.042969 C 177.960938 402.972656 178.007812 402.816406 177.941406 402.6875 C 177.871094 402.558594 177.714844 402.511719 177.585938 402.578125 C 176.921875 402.933594 176.210938 403.109375 175.464844 403.292969 C 175.214844 403.359375 174.960938 403.417969 174.710938 403.488281 C 174.574219 403.527344 174.492188 403.671875 174.53125 403.8125 C 174.5625 403.929688 174.667969 404.003906 174.78125 404.003906 " fill-opacity="1" fill-rule="nonzero"/><path fill="#3c5064" d="M 242.914062 320.90625 C 242.117188 317.726562 241.660156 314.441406 241.398438 311.476562 C 240.742188 310.625 240.714844 308.773438 241.089844 308.386719 C 241.121094 308.355469 241.152344 308.332031 241.179688 308.300781 C 241.113281 306.929688 241.078125 305.683594 241.0625 304.617188 C 240.6875 304.3125 240.507812 304.03125 240.457031 303.78125 C 240.457031 303.78125 240.457031 303.777344 240.457031 303.777344 C 240.433594 303.671875 240.433594 303.574219 240.457031 303.480469 C 240.480469 303.351562 240.699219 303.246094 241.042969 303.15625 C 241.039062 302.816406 241.039062 302.511719 241.035156 302.242188 C 241.019531 300.476562 240.929688 298.371094 240.9375 296.203125 C 238.34375 296.867188 235.929688 298.167969 234.265625 300.101562 C 232.796875 301.804688 231.96875 303.878906 231.707031 306.039062 C 231.273438 309.617188 232.398438 313.4375 234.769531 316.222656 C 236.8125 318.621094 239.785156 320.316406 242.914062 320.90625 " fill-opacity="1" fill-rule="nonzero"/><path fill="#3c5064" d="M 231.613281 397.339844 C 231.6875 397.339844 231.761719 397.308594 231.8125 397.25 C 231.910156 397.132812 241.65625 385.710938 244.539062 373.941406 C 247.441406 362.089844 242.738281 357.40625 242.535156 357.214844 C 242.433594 357.113281 242.265625 357.117188 242.167969 357.21875 C 242.066406 357.324219 242.070312 357.492188 242.175781 357.589844 C 242.222656 357.636719 246.859375 362.253906 244.03125 373.816406 C 241.175781 385.460938 231.515625 396.792969 231.414062 396.90625 C 231.320312 397.015625 231.335938 397.179688 231.445312 397.277344 C 231.492188 397.316406 231.554688 397.339844 231.613281 397.339844 " fill-opacity="1" fill-rule="nonzero"/><path fill="#3c5064" d="M 249.28125 406.410156 C 249.28125 406.265625 249.164062 406.148438 249.019531 406.148438 C 248.875 406.148438 248.757812 406.265625 248.757812 406.410156 C 248.757812 411.082031 253.671875 420.804688 257.523438 423.746094 C 257.570312 423.785156 257.625 423.804688 257.683594 423.804688 C 257.761719 423.804688 257.839844 423.769531 257.890625 423.699219 C 257.976562 423.585938 257.953125 423.421875 257.839844 423.332031 C 254.082031 420.460938 249.28125 410.96875 249.28125 406.410156 " fill-opacity="1" fill-rule="nonzero"/><path fill="#3c5064" d="M 280.382812 364.855469 C 280.382812 361.3125 279.664062 359.15625 277.535156 356.324219 C 275.1875 353.191406 272.242188 348.140625 271.714844 343.878906 C 273.917969 343.289062 275.964844 342.480469 277.691406 341.554688 C 277.816406 341.488281 277.867188 341.328125 277.796875 341.203125 C 277.730469 341.074219 277.570312 341.027344 277.441406 341.09375 C 275.765625 341.992188 273.789062 342.777344 271.660156 343.355469 C 271.503906 341.382812 271.917969 339.605469 273.207031 338.316406 C 273.414062 338.109375 273.414062 337.78125 273.207031 337.578125 C 273.003906 337.371094 272.671875 337.371094 272.46875 337.578125 C 270.84375 339.199219 270.402344 341.34375 270.617188 343.617188 C 266.292969 344.628906 261.457031 344.746094 257.285156 343.179688 C 256.539062 342.902344 255.855469 342.5625 255.199219 342.195312 C 255.789062 341.472656 256.550781 340.800781 257.523438 340.183594 C 257.769531 340.027344 257.839844 339.703125 257.6875 339.460938 C 257.53125 339.214844 257.210938 339.144531 256.964844 339.296875 C 255.835938 340.011719 254.96875 340.800781 254.300781 341.652344 C 252.023438 340.136719 250.351562 338.027344 249.335938 335.339844 C 249.285156 335.203125 249.132812 335.136719 248.996094 335.1875 C 248.863281 335.238281 248.792969 335.386719 248.84375 335.523438 C 249.878906 338.269531 251.636719 340.488281 253.992188 342.074219 C 251.355469 345.90625 252.601562 350.878906 253.816406 355.722656 C 254.96875 360.300781 256.140625 365.011719 254.335938 369.066406 C 253.5625 369.117188 253.253906 369.851562 253.40625 370.449219 C 252.167969 370.566406 250.8125 371.625 250.980469 371.902344 C 251.085938 372.082031 251.421875 372.042969 251.644531 371.910156 C 251.632812 372.261719 251.695312 372.707031 251.914062 372.804688 C 252.226562 372.945312 252.652344 372.941406 252.957031 372.867188 C 252.867188 373.1875 252.855469 373.585938 253.019531 373.65625 C 253.324219 373.789062 254.304688 372.25 254.542969 371.222656 C 255.429688 371.132812 255.679688 370.125 255.292969 369.515625 C 257.261719 365.160156 256.03125 360.246094 254.832031 355.46875 C 253.578125 350.476562 252.464844 346.027344 254.871094 342.621094 C 255.570312 343.023438 256.3125 343.375 257.101562 343.667969 C 259.378906 344.523438 261.84375 344.890625 264.316406 344.890625 C 266.472656 344.890625 268.632812 344.613281 270.679688 344.140625 C 271.453125 349.765625 275.980469 355.988281 276.699219 356.949219 C 278.695312 359.609375 279.335938 361.53125 279.335938 364.878906 C 279.480469 367.863281 278.714844 369.878906 277.164062 371.636719 C 277.050781 371.597656 276.929688 371.570312 276.789062 371.570312 C 275.953125 371.570312 275.621094 372.34375 275.777344 372.96875 C 274.542969 373.078125 273.183594 374.140625 273.351562 374.417969 C 273.429688 374.550781 273.625 374.5625 273.8125 374.511719 C 273.609375 374.683594 273.566406 374.980469 273.722656 375.203125 C 273.824219 375.34375 273.984375 375.421875 274.148438 375.421875 C 274.234375 375.421875 274.316406 375.398438 274.394531 375.355469 C 274.695312 375.457031 275.054688 375.449219 275.328125 375.382812 C 275.238281 375.703125 275.226562 376.101562 275.394531 376.175781 C 275.699219 376.304688 276.679688 374.765625 276.914062 373.738281 C 277.609375 373.667969 277.914062 373.03125 277.824219 372.464844 C 279.613281 370.5 280.542969 368.222656 280.382812 364.855469 " fill-opacity="1" fill-rule="nonzero"/><path fill="#3c5064" d="M 308.652344 331.742188 C 308.515625 331.710938 308.375 331.804688 308.34375 331.945312 C 308.316406 332.085938 308.410156 332.222656 308.550781 332.253906 C 324.691406 335.546875 338.339844 357.320312 338.476562 357.539062 C 338.527344 357.621094 338.613281 357.664062 338.699219 357.664062 C 338.746094 357.664062 338.792969 357.652344 338.835938 357.625 C 338.960938 357.550781 339 357.386719 338.921875 357.265625 C 338.785156 357.042969 325.015625 335.078125 308.652344 331.742188 " fill-opacity="1" fill-rule="nonzero"/><path fill="#3c5064" d="M 242.210938 281.066406 C 242.285156 281.011719 250.199219 275.804688 263.410156 277.425781 C 276.722656 279.058594 279.296875 297.414062 279.324219 297.601562 C 279.339844 297.742188 279.242188 297.875 279.097656 297.894531 C 279.085938 297.894531 279.074219 297.898438 279.0625 297.898438 C 278.933594 297.898438 278.824219 297.800781 278.804688 297.667969 C 278.78125 297.488281 276.257812 279.527344 263.347656 277.941406 C 250.335938 276.347656 242.578125 281.449219 242.5 281.5 C 242.382812 281.582031 242.21875 281.546875 242.140625 281.429688 C 242.058594 281.308594 242.089844 281.148438 242.210938 281.066406 Z M 288.148438 300.226562 C 289.847656 300.617188 291.921875 301.835938 292.988281 303.347656 C 296.929688 308.933594 295.109375 318.742188 285.992188 318.738281 C 283.335938 318.738281 280.683594 317.269531 278.972656 315.121094 C 277.335938 313.066406 276.558594 310.253906 276.855469 307.617188 C 277.035156 306.027344 277.609375 304.5 278.621094 303.246094 C 280.824219 300.515625 284.914062 299.480469 288.148438 300.226562 Z M 240.125 283.984375 C 240.128906 283.988281 240.132812 283.984375 240.136719 283.984375 C 240.363281 284.054688 241.769531 282.535156 244.449219 281.511719 C 250.148438 279.332031 260.203125 277.0625 267.117188 280.671875 C 270.949219 282.671875 273.414062 286.742188 275 291.046875 C 275.992188 293.734375 276.640625 296.519531 277.0625 298.945312 C 275.378906 299.675781 273.867188 300.710938 272.714844 302.050781 C 271.246094 303.753906 270.414062 305.828125 270.152344 307.988281 C 269.71875 311.566406 270.84375 315.382812 273.21875 318.171875 C 274.515625 319.691406 276.183594 321.015625 278.03125 321.90625 C 273.722656 324.976562 267.320312 326.683594 262.703125 326.777344 C 262.542969 326.496094 262.1875 326.230469 261.589844 326.023438 C 259.660156 325.359375 258.769531 325.320312 258.394531 326.339844 C 257.949219 327.550781 258.699219 328.46875 260.238281 328.542969 C 261.59375 328.605469 262.664062 327.984375 262.792969 327.300781 C 267.589844 327.199219 274.210938 325.457031 278.609375 322.167969 C 280.019531 322.765625 281.519531 323.105469 283.023438 323.085938 C 283.148438 323.082031 283.269531 323.085938 283.390625 323.082031 C 293.800781 322.546875 297.457031 315.65625 296.429688 309.03125 C 296.054688 306.605469 295.054688 304.21875 293.53125 302.191406 C 293.472656 302.117188 293.414062 302.046875 293.355469 301.976562 C 291.816406 300.085938 289.066406 298.566406 286.734375 298.007812 C 285.988281 293.394531 284.5625 287.238281 281.867188 282.042969 C 281.183594 280.726562 280.300781 279.597656 279.277344 278.628906 C 272.699219 272.410156 259.871094 272.882812 250.964844 275.34375 C 240.457031 278.25 239.488281 283.652344 240.125 283.984375 " fill-opacity="1" fill-rule="nonzero"/><path fill="#3c5064" d="M 340.414062 332.152344 C 340.15625 330.867188 338.816406 329.699219 337.636719 328.664062 C 337.152344 328.242188 336.695312 327.839844 336.367188 327.476562 C 336.269531 327.371094 336.105469 327.363281 335.996094 327.457031 C 335.890625 327.558594 335.882812 327.722656 335.976562 327.828125 C 336.328125 328.214844 336.796875 328.621094 337.292969 329.054688 C 338.410156 330.035156 339.675781 331.144531 339.898438 332.261719 C 340.019531 332.765625 339.976562 333.101562 339.765625 333.261719 C 339.242188 333.65625 337.726562 333.136719 336.863281 332.65625 C 334.664062 331.496094 332.761719 329.804688 330.917969 328.171875 C 329.359375 326.785156 327.742188 325.351562 325.949219 324.246094 C 320.558594 320.945312 313.535156 319.394531 306.675781 320 C 302.753906 320.277344 299.570312 320.84375 296.953125 321.714844 C 294.015625 322.503906 288.332031 324.773438 288.273438 324.796875 C 288.140625 324.851562 288.074219 325 288.128906 325.136719 C 288.183594 325.269531 288.335938 325.335938 288.46875 325.28125 C 288.527344 325.257812 294.179688 323.003906 297.105469 322.214844 C 299.695312 321.351562 302.835938 320.800781 306.71875 320.523438 C 313.46875 319.929688 320.378906 321.449219 325.675781 324.691406 C 327.425781 325.769531 329.023438 327.191406 330.570312 328.5625 C 332.4375 330.21875 334.363281 331.929688 336.613281 333.113281 C 336.632812 333.125 338.085938 333.921875 339.21875 333.921875 C 339.546875 333.921875 339.851562 333.855469 340.082031 333.679688 C 340.472656 333.382812 340.582031 332.867188 340.414062 332.152344 " fill-opacity="1" fill-rule="nonzero"/><path fill="#3c5064" d="M 93.933594 357.429688 C 92.585938 355.265625 92.1875 352.425781 91.792969 349.960938 C 90.460938 341.566406 90.597656 332.863281 90.890625 324.390625 C 91.199219 315.382812 91.929688 306.332031 93.488281 297.445312 C 94.027344 294.359375 94.675781 291.257812 95.726562 288.300781 C 96.273438 286.761719 96.886719 285.1875 98.523438 284.625 C 103.40625 282.949219 109.769531 284.183594 114.722656 284.8125 C 123.328125 285.910156 131.855469 287.710938 140.289062 289.726562 C 149.132812 291.835938 157.90625 294.289062 166.53125 297.171875 C 173.109375 299.367188 179.839844 301.726562 185.832031 305.265625 C 187.324219 306.144531 189.042969 307.183594 189.96875 308.699219 C 192.894531 313.882812 193.058594 321.1875 193.558594 326.945312 C 194.367188 336.207031 194.507812 345.539062 194.242188 354.828125 C 194.09375 359.984375 193.847656 365.203125 193.253906 370.363281 C 192.886719 373.570312 192.386719 376.757812 191.6875 379.894531 C 191.136719 382.355469 190.46875 384.972656 189.050781 387.097656 C 188.117188 388.496094 186.71875 388.628906 185.152344 388.636719 C 179.828125 388.660156 174.363281 387.203125 169.183594 385.789062 C 168.40625 385.578125 167.628906 385.363281 166.867188 385.15625 C 158.167969 382.816406 149.589844 380.03125 141.074219 377.117188 C 126.453125 372.109375 111.449219 367.019531 97.609375 360.0625 C 96.269531 359.386719 94.753906 358.75 93.933594 357.429688 Z M 164.5625 386.144531 C 164.839844 386.222656 165.117188 386.300781 165.394531 386.378906 C 166.878906 386.792969 168.378906 387.207031 169.886719 387.601562 C 170.109375 388.492188 173.082031 399.773438 181.964844 403.976562 C 182 403.996094 182.039062 404.003906 182.074219 404.003906 C 182.171875 404.003906 182.265625 403.949219 182.3125 403.855469 C 182.371094 403.722656 182.316406 403.566406 182.1875 403.503906 C 174.0625 399.660156 170.992188 389.6875 170.464844 387.753906 C 174.804688 388.871094 179.214844 389.8125 183.648438 390.140625 C 187.761719 390.445312 190.007812 389.355469 191.640625 385.476562 C 193.628906 380.757812 194.386719 375.382812 194.859375 370.148438 C 195.027344 368.335938 195.15625 366.539062 195.292969 364.792969 C 196.015625 355.398438 196.078125 345.941406 195.710938 336.535156 C 195.484375 330.609375 195.046875 324.679688 194.203125 318.808594 C 193.683594 315.199219 193.144531 311.140625 191.316406 307.910156 C 189.011719 304.132812 183.476562 302.113281 179.652344 300.449219 C 172.269531 297.242188 164.5625 294.769531 156.847656 292.503906 C 140.875 287.816406 124.105469 283.550781 107.425781 282.535156 C 104.304688 282.347656 98.308594 281.613281 95.980469 284.421875 C 94.628906 286.054688 94.007812 288.335938 93.445312 290.332031 C 92.488281 293.742188 91.898438 297.253906 91.378906 300.753906 C 90.050781 309.695312 89.429688 318.757812 89.226562 327.792969 C 89.046875 335.796875 89.101562 343.988281 90.542969 351.890625 C 90.957031 354.160156 91.503906 356.625 92.804688 358.570312 C 93.652344 359.832031 95.082031 360.511719 96.394531 361.191406 C 101.804688 364.003906 107.546875 366.242188 113.207031 368.496094 C 130.003906 375.183594 147.144531 381.277344 164.5625 386.144531 " fill-opacity="1" fill-rule="nonzero"/><path fill="#3c5064" d="M 291.792969 362.394531 C 291.679688 362.480469 291.65625 362.644531 291.746094 362.761719 C 295.214844 367.296875 296.3125 372.785156 294.828125 378.210938 C 293.164062 384.3125 288.527344 389.429688 282.417969 391.90625 C 279.621094 393.085938 274.757812 393.585938 269.613281 394.117188 C 260.109375 395.101562 249.359375 396.210938 249.210938 402.191406 C 248.105469 401.933594 244.578125 401.222656 242.996094 402.3125 C 241.128906 403.59375 241.078125 406.292969 241.078125 406.40625 C 241.074219 406.550781 241.191406 406.667969 241.335938 406.671875 C 241.335938 406.671875 241.339844 406.671875 241.339844 406.671875 C 241.480469 406.671875 241.597656 406.558594 241.601562 406.410156 C 241.601562 406.386719 241.652344 403.871094 243.289062 402.742188 C 244.945312 401.605469 249.363281 402.769531 249.40625 402.78125 C 249.488281 402.800781 249.574219 402.785156 249.640625 402.730469 C 249.703125 402.679688 249.742188 402.601562 249.738281 402.515625 C 249.496094 396.722656 260.214844 395.617188 269.667969 394.640625 C 274.851562 394.105469 279.75 393.601562 282.617188 392.386719 C 288.871094 389.851562 293.625 384.605469 295.335938 378.347656 C 296.859375 372.761719 295.734375 367.113281 292.160156 362.441406 C 292.074219 362.328125 291.910156 362.304688 291.792969 362.394531 " fill-opacity="1" fill-rule="nonzero"/><path fill="#3c5064" d="M 246.1875 405.675781 L 246.453125 405.714844 C 246.464844 405.714844 246.480469 405.714844 246.492188 405.714844 C 246.617188 405.714844 246.730469 405.621094 246.75 405.492188 C 246.769531 405.347656 246.671875 405.214844 246.527344 405.195312 L 246.261719 405.15625 C 245.554688 405.058594 244.75 404.945312 244.058594 404.75 C 243.921875 404.707031 243.773438 404.789062 243.734375 404.929688 C 243.695312 405.066406 243.777344 405.210938 243.914062 405.25 C 244.640625 405.457031 245.464844 405.574219 246.1875 405.675781 " fill-opacity="1" fill-rule="nonzero"/><path fill="#3c5064" d="M 243.277344 409.378906 C 243.246094 409.519531 243.332031 409.660156 243.472656 409.691406 C 243.929688 409.792969 244.402344 409.828125 244.886719 409.828125 C 245.535156 409.828125 246.203125 409.761719 246.855469 409.695312 C 247.003906 409.683594 247.105469 409.554688 247.09375 409.410156 C 247.078125 409.265625 246.9375 409.15625 246.804688 409.175781 C 245.707031 409.285156 244.574219 409.398438 243.585938 409.179688 C 243.445312 409.152344 243.308594 409.238281 243.277344 409.378906 " fill-opacity="1" fill-rule="nonzero"/><path fill="#3c5064" d="M 248.140625 413.5 C 247.40625 413.664062 246.671875 413.644531 245.898438 413.625 C 245.640625 413.617188 245.382812 413.609375 245.125 413.609375 C 244.980469 413.609375 244.863281 413.726562 244.863281 413.871094 C 244.863281 414.015625 244.980469 414.132812 245.125 414.132812 C 245.378906 414.132812 245.632812 414.140625 245.886719 414.148438 C 246.140625 414.152344 246.398438 414.160156 246.65625 414.160156 C 247.183594 414.160156 247.71875 414.132812 248.253906 414.011719 C 248.394531 413.980469 248.484375 413.839844 248.453125 413.699219 C 248.421875 413.558594 248.285156 413.472656 248.140625 413.5 " fill-opacity="1" fill-rule="nonzero"/><path fill="#3c5064" d="M 247.542969 417.933594 C 247.402344 417.917969 247.273438 418.023438 247.253906 418.164062 C 247.238281 418.308594 247.34375 418.4375 247.488281 418.453125 C 247.703125 418.476562 247.917969 418.488281 248.128906 418.488281 C 248.558594 418.488281 248.980469 418.449219 249.390625 418.410156 C 249.773438 418.375 250.132812 418.339844 250.472656 418.339844 C 250.617188 418.339844 250.734375 418.222656 250.734375 418.078125 C 250.734375 417.9375 250.617188 417.816406 250.472656 417.816406 C 250.105469 417.816406 249.738281 417.851562 249.34375 417.890625 C 248.753906 417.945312 248.144531 418 247.542969 417.933594 " fill-opacity="1" fill-rule="nonzero"/><path fill="#3c5064" d="M 252.804688 422.035156 C 252.070312 422.199219 251.339844 422.175781 250.570312 422.15625 C 250.308594 422.144531 250.050781 422.140625 249.792969 422.140625 C 249.648438 422.140625 249.53125 422.257812 249.53125 422.402344 C 249.53125 422.546875 249.648438 422.664062 249.792969 422.664062 C 250.046875 422.664062 250.300781 422.671875 250.554688 422.675781 C 250.808594 422.6875 251.066406 422.691406 251.328125 422.691406 C 251.851562 422.691406 252.386719 422.660156 252.921875 422.542969 C 253.0625 422.511719 253.148438 422.375 253.121094 422.230469 C 253.089844 422.089844 252.949219 422.003906 252.804688 422.035156 " fill-opacity="1" fill-rule="nonzero"/><path fill="#c85a14" d="M 287.121094 282.953125 C 284.519531 280.964844 281.90625 279.574219 279.277344 278.628906 C 280.300781 279.597656 281.179688 280.730469 281.863281 282.042969 C 284.5625 287.238281 285.988281 293.394531 286.734375 298.007812 C 289.066406 298.566406 291.816406 300.085938 293.355469 301.976562 C 294.207031 294.683594 292.171875 286.929688 287.121094 282.953125 " fill-opacity="1" fill-rule="nonzero"/><path fill="#c85a14" d="M 254.910156 302.226562 C 253.59375 302.445312 253.019531 304.507812 253.476562 305.445312 C 253.933594 306.574219 254.773438 306.855469 255.730469 306.773438 C 256.375 306.71875 257.070312 306.507812 257.742188 306.269531 C 260.367188 305.347656 264.828125 303.835938 266.496094 302.65625 C 266.957031 302.328125 267.207031 302.03125 267.144531 301.777344 C 266.867188 300.597656 256.230469 302.003906 254.910156 302.226562 " fill-opacity="1" fill-rule="nonzero"/><path fill="#c85a14" d="M 247.632812 303.054688 C 246.292969 302.757812 242.507812 302.777344 241.042969 303.15625 C 240.699219 303.246094 240.480469 303.351562 240.457031 303.484375 C 240.433594 303.574219 240.4375 303.675781 240.457031 303.777344 C 240.457031 303.78125 240.457031 303.78125 240.457031 303.78125 C 240.507812 304.03125 240.6875 304.3125 241.058594 304.621094 C 241.21875 304.753906 241.414062 304.890625 241.648438 305.03125 C 242.269531 305.410156 243.175781 305.824219 244.449219 306.269531 C 245.773438 306.734375 247.085938 307.460938 247.953125 306.816406 C 248.183594 306.648438 248.382812 306.386719 248.546875 305.992188 C 249 305.050781 249.28125 303.421875 247.632812 303.054688 " fill-opacity="1" fill-rule="nonzero"/><path fill="#c85a14" d="M 263.480469 306.964844 C 261.933594 307.121094 260.152344 307.4375 258.917969 307.910156 C 258.230469 308.167969 257.746094 308.414062 257.402344 308.628906 C 256.46875 309.226562 256.640625 309.632812 256.839844 309.699219 C 257.113281 309.789062 258.21875 309.460938 258.191406 309.679688 C 258.140625 310.121094 258.757812 311.226562 259.46875 311.585938 C 260.367188 312.039062 261.613281 311.949219 262.421875 311.328125 C 263.398438 310.582031 263.40625 309.207031 262.625 308.476562 C 263.378906 308.390625 266.804688 307.558594 266.644531 307.078125 C 266.558594 306.828125 265.160156 306.800781 263.480469 306.964844 " fill-opacity="1" fill-rule="nonzero"/><path fill="#c85a14" d="M 247.476562 309.371094 C 246.910156 308.960938 245.445312 308.207031 243.996094 307.898438 C 242.917969 307.671875 241.851562 307.699219 241.179688 308.300781 C 241.152344 308.332031 241.121094 308.359375 241.089844 308.386719 C 240.714844 308.777344 240.742188 310.625 241.398438 311.476562 C 241.476562 311.574219 241.5625 311.664062 241.65625 311.734375 C 242.488281 312.328125 243.363281 312.417969 244.25 311.933594 C 245.175781 311.429688 245.425781 310.371094 245.058594 309.292969 C 244.945312 308.949219 247.605469 309.902344 247.71875 309.625 C 247.734375 309.585938 247.640625 309.492188 247.476562 309.371094 " fill-opacity="1" fill-rule="nonzero"/><path fill="#c85a14" d="M 267.117188 280.671875 C 260.203125 277.0625 250.148438 279.332031 244.449219 281.511719 C 241.769531 282.535156 240.363281 284.054688 240.136719 283.984375 C 239.796875 284.308594 239.46875 284.644531 239.171875 285 C 233.066406 292.203125 238.578125 294.515625 240.957031 294.890625 C 241.355469 294.957031 241.671875 294.964844 241.824219 294.933594 C 245.011719 294.25 240.945312 297.652344 244.285156 299.472656 C 247.621094 301.292969 249.5625 298.875 251.609375 297.738281 C 253.433594 296.828125 254.421875 298.453125 257.679688 298.648438 C 262.8125 298.949219 263.011719 294.71875 264.226562 294.261719 C 265.429688 293.8125 273.082031 295.648438 275 291.046875 C 273.414062 286.742188 270.949219 282.671875 267.117188 280.671875 " fill-opacity="1" fill-rule="nonzero"/><g clip-path="url(#id5)"><path fill="#ffc44d" d="M 177.984375 159.398438 C 176.96875 159.398438 176.007812 159.835938 175.335938 160.59375 C 174.664062 161.355469 174.351562 162.363281 174.480469 163.371094 L 183.898438 238.71875 C 184.042969 239.890625 184.765625 240.910156 185.824219 241.441406 L 223.496094 260.277344 C 224.492188 260.773438 225.660156 260.773438 226.65625 260.277344 L 264.332031 241.441406 C 265.386719 240.910156 266.109375 239.890625 266.253906 238.71875 L 275.675781 163.371094 C 275.800781 162.363281 275.488281 161.355469 274.816406 160.59375 C 274.148438 159.835938 273.183594 159.398438 272.167969 159.398438 Z M 177.984375 159.398438 " fill-opacity="1" fill-rule="nonzero"/></g><g clip-path="url(#id6)"><path fill="#e5b045" d="M 225.078125 159.398438 L 225.078125 260.648438 C 224.535156 260.648438 223.996094 260.527344 223.496094 260.277344 L 185.824219 241.441406 C 184.765625 240.910156 184.042969 239.890625 183.898438 238.71875 L 174.480469 163.371094 C 174.351562 162.363281 174.664062 161.355469 175.335938 160.59375 C 176.007812 159.835938 176.96875 159.398438 177.984375 159.398438 Z M 225.078125 159.398438 " fill-opacity="1" fill-rule="evenodd"/></g><path fill="#cfd8dc" d="M 218.011719 173.527344 C 219.964844 173.527344 221.546875 175.109375 221.546875 177.058594 L 221.546875 238.28125 C 221.546875 239.539062 220.875 240.703125 219.785156 241.335938 C 218.695312 241.96875 217.355469 241.972656 216.261719 241.347656 L 199.777344 231.929688 C 198.085938 230.960938 197.496094 228.804688 198.464844 227.109375 C 199.433594 225.417969 201.589844 224.828125 203.28125 225.796875 L 214.480469 232.195312 L 214.480469 177.058594 C 214.480469 175.109375 216.0625 173.527344 218.011719 173.527344 Z M 218.011719 173.527344 " fill-opacity="1" fill-rule="evenodd"/><path fill="#eceff1" d="M 228.609375 177.058594 C 228.609375 175.109375 230.191406 173.527344 232.140625 173.527344 L 255.6875 173.527344 C 257.636719 173.527344 259.21875 175.109375 259.21875 177.058594 C 259.21875 179.011719 257.636719 180.59375 255.6875 180.59375 L 235.671875 180.59375 L 235.671875 203.265625 L 252.566406 199.511719 C 253.667969 199.269531 254.820312 199.5625 255.664062 200.308594 C 256.511719 201.054688 256.953125 202.15625 256.851562 203.28125 L 254.496094 229.183594 C 254.386719 230.398438 253.652344 231.472656 252.558594 232.019531 L 233.722656 241.441406 C 231.976562 242.3125 229.855469 241.605469 228.980469 239.859375 C 228.109375 238.117188 228.816406 235.992188 230.5625 235.121094 L 247.640625 226.582031 L 249.378906 207.457031 L 232.90625 211.117188 C 231.863281 211.351562 230.765625 211.097656 229.929688 210.425781 C 229.09375 209.753906 228.609375 208.742188 228.609375 207.671875 Z M 228.609375 177.058594 " fill-opacity="1" fill-rule="evenodd"/><g fill="#423000" fill-opacity="1"><g transform="translate(57.190276, 81.595746)"><g><path d="M 12.492188 0 L 12.492188 -39.886719 L 3.136719 -39.886719 L 3.136719 0 Z M 12.492188 0 "/></g></g></g><g fill="#423000" fill-opacity="1"><g transform="translate(72.872454, 81.595746)"><g><path d="M 11.65625 0 L 11.65625 -16.675781 C 11.65625 -19.238281 12.023438 -20.699219 12.753906 -21.695312 C 13.539062 -22.792969 14.847656 -23.210938 16.675781 -23.210938 C 18.140625 -23.210938 19.183594 -22.898438 19.917969 -22.113281 C 20.804688 -21.171875 21.171875 -19.601562 21.171875 -16.675781 L 21.171875 0 L 29.953125 0 L 29.953125 -16.570312 C 29.953125 -20.230469 29.953125 -22.582031 28.804688 -25.144531 C 27.601562 -27.863281 25.09375 -30.265625 19.238281 -30.265625 C 16.101562 -30.265625 13.644531 -29.429688 11.65625 -26.453125 L 11.65625 -29.640625 L 2.875 -29.640625 L 2.875 0 Z M 11.65625 0 "/></g></g></g><g fill="#423000" fill-opacity="1"><g transform="translate(105.491373, 81.595746)"><g><path d="M 19.027344 0 L 19.027344 -7.109375 L 15.734375 -7.109375 C 14.21875 -7.109375 13.957031 -8.050781 13.957031 -8.886719 L 13.957031 -22.792969 L 19.082031 -22.792969 L 19.082031 -29.640625 L 13.957031 -29.640625 L 13.957031 -39.886719 L 5.175781 -39.886719 L 5.175781 -29.640625 L 1.097656 -29.640625 L 1.097656 -22.792969 L 5.175781 -22.792969 L 5.175781 -5.90625 C 5.175781 -2.144531 7.683594 0 12.023438 0 Z M 19.027344 0 "/></g></g></g><g fill="#423000" fill-opacity="1"><g transform="translate(126.296392, 81.595746)"><g><path d="M 11.65625 0 L 11.65625 -12.492188 C 11.65625 -16.519531 12.335938 -18.871094 13.851562 -20.335938 C 14.898438 -21.328125 16.414062 -21.902344 18.871094 -21.902344 L 20.542969 -21.902344 L 20.542969 -30.265625 L 19.238281 -30.265625 C 16.101562 -30.265625 13.644531 -29.429688 11.65625 -26.453125 L 11.65625 -29.640625 L 2.875 -29.640625 L 2.875 0 Z M 11.65625 0 "/></g></g></g><g fill="#423000" fill-opacity="1"><g transform="translate(147.728692, 81.595746)"><g><path d="M 17.25 0.628906 C 26.660156 0.628906 32.828125 -5.59375 32.828125 -15.003906 C 32.828125 -24.046875 26.554688 -30.265625 17.25 -30.265625 C 7.945312 -30.265625 1.671875 -24.097656 1.671875 -15.003906 C 1.671875 -5.542969 8 0.628906 17.25 0.628906 Z M 17.25 -6.898438 C 13.332031 -6.898438 10.714844 -10.035156 10.714844 -15.003906 C 10.714844 -19.65625 13.332031 -22.792969 17.25 -22.792969 C 21.222656 -22.792969 23.679688 -19.601562 23.679688 -15.003906 C 23.679688 -10.140625 21.222656 -6.898438 17.25 -6.898438 Z M 17.25 -6.898438 "/></g></g></g><g fill="#423000" fill-opacity="1"><g transform="translate(182.229478, 81.595746)"><g><path d="M 14.6875 0.628906 C 17.824219 0.628906 20.28125 -0.210938 22.269531 -3.1875 L 22.269531 0 L 31.050781 0 L 31.050781 -39.886719 L 22.269531 -39.886719 L 22.269531 -26.453125 C 20.28125 -29.429688 17.824219 -30.265625 14.6875 -30.265625 C 7.109375 -30.265625 1.777344 -23.890625 1.777344 -14.847656 C 1.777344 -5.75 7.109375 0.628906 14.6875 0.628906 Z M 17.144531 -6.847656 C 13.226562 -6.847656 10.664062 -10.140625 10.664062 -14.847656 C 10.664062 -19.5 13.226562 -22.792969 17.144531 -22.792969 C 21.015625 -22.792969 23.628906 -19.601562 23.628906 -14.847656 C 23.628906 -10.035156 21.015625 -6.847656 17.144531 -6.847656 Z M 17.144531 -6.847656 "/></g></g></g><g fill="#423000" fill-opacity="1"><g transform="translate(216.155249, 81.595746)"><g><path d="M 13.382812 0.628906 C 16.9375 0.628906 19.183594 -0.523438 20.960938 -3.1875 L 20.960938 0 L 29.746094 0 L 29.746094 -29.640625 L 20.960938 -29.640625 L 20.960938 -12.964844 C 20.960938 -10.507812 20.648438 -8.992188 19.863281 -7.945312 C 19.082031 -6.953125 17.878906 -6.429688 15.945312 -6.429688 C 14.429688 -6.429688 13.382812 -6.796875 12.703125 -7.527344 C 11.8125 -8.46875 11.449219 -10.035156 11.449219 -12.964844 L 11.449219 -29.640625 L 2.667969 -29.640625 L 2.667969 -13.070312 C 2.667969 -8.257812 2.875 -6.535156 3.816406 -4.496094 C 5.332031 -1.097656 8.519531 0.628906 13.382812 0.628906 Z M 13.382812 0.628906 "/></g></g></g><g fill="#423000" fill-opacity="1"><g transform="translate(248.774158, 81.595746)"><g><path d="M 22.113281 -10.246094 C 21.539062 -7.789062 20.074219 -6.378906 17.09375 -6.378906 C 13.171875 -6.378906 10.714844 -9.617188 10.714844 -15.003906 C 10.714844 -20.179688 13.171875 -23.316406 17.09375 -23.316406 C 19.707031 -23.316406 21.222656 -22.164062 22.007812 -19.761719 L 31.625 -19.761719 C 30.109375 -26.191406 24.570312 -30.265625 17.09375 -30.265625 C 7.789062 -30.265625 1.671875 -24.097656 1.671875 -15.003906 C 1.671875 -6.742188 6.378906 -0.992188 13.75 0.3125 L 10.875 3.503906 C 14.324219 3.503906 17.40625 3.921875 17.40625 6.167969 C 17.40625 7.320312 16.570312 7.945312 15.054688 7.945312 C 13.800781 7.945312 12.335938 7.578125 10.507812 6.898438 L 10.507812 10.089844 C 12.179688 10.613281 13.957031 10.875 15.527344 10.875 C 19.5 10.875 22.636719 9.304688 22.636719 5.960938 C 22.636719 4.496094 22.21875 3.449219 20.960938 2.71875 C 20.28125 2.300781 18.820312 1.933594 17.042969 2.144531 L 16.78125 1.671875 C 17.40625 1.253906 17.929688 0.941406 18.347656 0.574219 C 25.144531 0.15625 30.320312 -3.765625 31.679688 -10.246094 Z M 22.113281 -10.246094 "/></g></g></g><g fill="#423000" fill-opacity="1"><g transform="translate(281.863536, 81.595746)"><g><path d="M 19.5 -31.417969 C 23.628906 -31.417969 25.40625 -34.1875 25.71875 -39.886719 L 20.910156 -39.886719 C 20.804688 -37.585938 20.28125 -36.488281 19.550781 -36.488281 C 18.140625 -36.488281 16.519531 -40.09375 12.703125 -40.09375 C 8.886719 -40.09375 6.480469 -36.75 6.273438 -31.46875 L 10.925781 -31.46875 C 11.03125 -33.71875 11.5 -35.023438 12.390625 -35.023438 C 14.011719 -35.023438 15.160156 -31.417969 19.5 -31.417969 Z M 11.449219 0.628906 C 13.90625 0.628906 16.257812 0.261719 17.984375 -0.941406 C 18.921875 -1.566406 19.601562 -2.457031 20.074219 -3.605469 L 20.074219 0 L 28.855469 0 L 28.855469 -14.0625 C 28.855469 -19.550781 28.855469 -24.203125 25.195312 -27.339844 C 22.84375 -29.378906 19.445312 -30.265625 15.996094 -30.265625 C 10.035156 -30.265625 3.921875 -27.183594 2.824219 -19.761719 L 11.554688 -19.761719 C 11.972656 -22.269531 13.90625 -23.679688 15.945312 -23.679688 C 17.25 -23.679688 18.242188 -23.367188 18.921875 -22.636719 C 19.601562 -21.851562 20.019531 -20.699219 20.125 -19.183594 L 12.441406 -17.824219 C 10.195312 -17.40625 7.527344 -16.832031 5.4375 -15.472656 C 3.292969 -14.0625 1.726562 -11.867188 1.726562 -8.3125 C 1.726562 -2.351562 6.117188 0.628906 11.449219 0.628906 Z M 14.011719 -6.011719 C 12.128906 -6.011719 10.507812 -6.742188 10.507812 -8.625 C 10.507812 -9.460938 10.820312 -10.035156 11.292969 -10.507812 C 12.023438 -11.1875 12.964844 -11.554688 14.898438 -11.917969 L 20.28125 -12.964844 C 20.179688 -9.722656 19.601562 -7.839844 17.199219 -6.742188 C 16.152344 -6.273438 15.003906 -6.011719 14.011719 -6.011719 Z M 14.011719 -6.011719 "/></g></g></g><g fill="#423000" fill-opacity="1"><g transform="translate(313.280148, 81.595746)"><g><path d="M 17.25 0.628906 C 26.660156 0.628906 32.828125 -5.59375 32.828125 -15.003906 C 32.828125 -24.046875 26.554688 -30.265625 17.25 -30.265625 C 7.945312 -30.265625 1.671875 -24.097656 1.671875 -15.003906 C 1.671875 -5.542969 8 0.628906 17.25 0.628906 Z M 17.25 -6.898438 C 13.332031 -6.898438 10.714844 -10.035156 10.714844 -15.003906 C 10.714844 -19.65625 13.332031 -22.792969 17.25 -22.792969 C 21.222656 -22.792969 23.679688 -19.601562 23.679688 -15.003906 C 23.679688 -10.140625 21.222656 -6.898438 17.25 -6.898438 Z M 17.25 -6.898438 "/></g></g></g><g fill="#423000" fill-opacity="1"><g transform="translate(347.780922, 81.595746)"><g/></g></g><g fill="#423000" fill-opacity="1"><g transform="translate(361.372155, 81.595746)"><g><path d="M 11.449219 0.628906 C 13.90625 0.628906 16.257812 0.261719 17.984375 -0.941406 C 18.921875 -1.566406 19.601562 -2.457031 20.074219 -3.605469 L 20.074219 0 L 28.855469 0 L 28.855469 -14.0625 C 28.855469 -19.550781 28.855469 -24.203125 25.195312 -27.339844 C 22.84375 -29.378906 19.445312 -30.265625 15.996094 -30.265625 C 10.035156 -30.265625 3.921875 -27.183594 2.824219 -19.761719 L 11.554688 -19.761719 C 11.972656 -22.269531 13.90625 -23.679688 15.945312 -23.679688 C 17.25 -23.679688 18.242188 -23.367188 18.921875 -22.636719 C 19.601562 -21.851562 20.019531 -20.699219 20.125 -19.183594 L 12.441406 -17.824219 C 10.195312 -17.40625 7.527344 -16.832031 5.4375 -15.472656 C 3.292969 -14.0625 1.726562 -11.867188 1.726562 -8.3125 C 1.726562 -2.351562 6.117188 0.628906 11.449219 0.628906 Z M 14.011719 -6.011719 C 12.128906 -6.011719 10.507812 -6.742188 10.507812 -8.625 C 10.507812 -9.460938 10.820312 -10.035156 11.292969 -10.507812 C 12.023438 -11.1875 12.964844 -11.554688 14.898438 -11.917969 L 20.28125 -12.964844 C 20.179688 -9.722656 19.601562 -7.839844 17.199219 -6.742188 C 16.152344 -6.273438 15.003906 -6.011719 14.011719 -6.011719 Z M 14.011719 -6.011719 "/></g></g></g><g fill="#423000" fill-opacity="1"><g transform="translate(87.832878, 135.774452)"><g><path d="M 5.542969 0 C 14.429688 0 18.085938 -2.40625 18.085938 -11.394531 L 18.085938 -39.886719 L 8.675781 -39.886719 L 8.675781 -11.5 C 8.675781 -9.199219 7.476562 -8.363281 5.542969 -8.363281 L 0.417969 -8.363281 L 0.417969 0 Z M 5.542969 0 "/></g></g></g><g fill="#423000" fill-opacity="1"><g transform="translate(108.846987, 135.774452)"><g><path d="M 11.449219 0.628906 C 13.90625 0.628906 16.257812 0.261719 17.984375 -0.941406 C 18.921875 -1.566406 19.601562 -2.457031 20.074219 -3.605469 L 20.074219 0 L 28.855469 0 L 28.855469 -14.0625 C 28.855469 -19.550781 28.855469 -24.203125 25.195312 -27.339844 C 22.84375 -29.378906 19.445312 -30.265625 15.996094 -30.265625 C 10.035156 -30.265625 3.921875 -27.183594 2.824219 -19.761719 L 11.554688 -19.761719 C 11.972656 -22.269531 13.90625 -23.679688 15.945312 -23.679688 C 17.25 -23.679688 18.242188 -23.367188 18.921875 -22.636719 C 19.601562 -21.851562 20.019531 -20.699219 20.125 -19.183594 L 12.441406 -17.824219 C 10.195312 -17.40625 7.527344 -16.832031 5.4375 -15.472656 C 3.292969 -14.0625 1.726562 -11.867188 1.726562 -8.3125 C 1.726562 -2.351562 6.117188 0.628906 11.449219 0.628906 Z M 14.011719 -6.011719 C 12.128906 -6.011719 10.507812 -6.742188 10.507812 -8.625 C 10.507812 -9.460938 10.820312 -10.035156 11.292969 -10.507812 C 12.023438 -11.1875 12.964844 -11.554688 14.898438 -11.917969 L 20.28125 -12.964844 C 20.179688 -9.722656 19.601562 -7.839844 17.199219 -6.742188 C 16.152344 -6.273438 15.003906 -6.011719 14.011719 -6.011719 Z M 14.011719 -6.011719 "/></g></g></g><g fill="#423000" fill-opacity="1"><g transform="translate(140.263611, 135.774452)"><g><path d="M 18.191406 0 L 29.167969 -29.640625 L 19.863281 -29.640625 L 14.636719 -13.015625 L 9.617188 -29.640625 L 0.3125 -29.640625 L 11.238281 0 Z M 18.191406 0 "/></g></g></g><g fill="#423000" fill-opacity="1"><g transform="translate(169.746101, 135.774452)"><g><path d="M 11.449219 0.628906 C 13.90625 0.628906 16.257812 0.261719 17.984375 -0.941406 C 18.921875 -1.566406 19.601562 -2.457031 20.074219 -3.605469 L 20.074219 0 L 28.855469 0 L 28.855469 -14.0625 C 28.855469 -19.550781 28.855469 -24.203125 25.195312 -27.339844 C 22.84375 -29.378906 19.445312 -30.265625 15.996094 -30.265625 C 10.035156 -30.265625 3.921875 -27.183594 2.824219 -19.761719 L 11.554688 -19.761719 C 11.972656 -22.269531 13.90625 -23.679688 15.945312 -23.679688 C 17.25 -23.679688 18.242188 -23.367188 18.921875 -22.636719 C 19.601562 -21.851562 20.019531 -20.699219 20.125 -19.183594 L 12.441406 -17.824219 C 10.195312 -17.40625 7.527344 -16.832031 5.4375 -15.472656 C 3.292969 -14.0625 1.726562 -11.867188 1.726562 -8.3125 C 1.726562 -2.351562 6.117188 0.628906 11.449219 0.628906 Z M 14.011719 -6.011719 C 12.128906 -6.011719 10.507812 -6.742188 10.507812 -8.625 C 10.507812 -9.460938 10.820312 -10.035156 11.292969 -10.507812 C 12.023438 -11.1875 12.964844 -11.554688 14.898438 -11.917969 L 20.28125 -12.964844 C 20.179688 -9.722656 19.601562 -7.839844 17.199219 -6.742188 C 16.152344 -6.273438 15.003906 -6.011719 14.011719 -6.011719 Z M 14.011719 -6.011719 "/></g></g></g><g fill="#423000" fill-opacity="1"><g transform="translate(201.162725, 135.774452)"><g><path d="M 19.917969 0.890625 C 29.585938 0.890625 35.496094 -4.023438 35.496094 -11.867188 C 35.496094 -21.121094 27.132812 -23 20.386719 -24.515625 C 15.839844 -25.5625 11.972656 -26.453125 11.972656 -29.328125 C 11.972656 -31.835938 14.585938 -32.882812 17.25 -32.882812 C 21.171875 -32.882812 23.890625 -30.84375 24.832031 -27.445312 L 34.5 -27.445312 C 33.246094 -36.332031 25.824219 -40.722656 17.460938 -40.722656 C 9.304688 -40.722656 2.667969 -36.800781 2.667969 -28.542969 C 2.667969 -19.761719 10.664062 -17.984375 17.355469 -16.464844 C 22.058594 -15.421875 26.085938 -14.53125 26.085938 -11.394531 C 26.085938 -8.257812 23.054688 -6.953125 19.863281 -6.953125 C 16.257812 -6.953125 12.652344 -8.3125 11.292969 -13.539062 L 1.621094 -13.539062 C 2.351562 -2.351562 12.390625 0.890625 19.917969 0.890625 Z M 19.917969 0.890625 "/></g></g></g><g fill="#423000" fill-opacity="1"><g transform="translate(238.381748, 135.774452)"><g><path d="M 17.09375 0.628906 C 24.515625 0.628906 30.214844 -3.398438 31.679688 -10.246094 L 22.113281 -10.246094 C 21.539062 -7.789062 20.074219 -6.378906 17.09375 -6.378906 C 13.171875 -6.378906 10.714844 -9.617188 10.714844 -15.003906 C 10.714844 -20.179688 13.171875 -23.316406 17.09375 -23.316406 C 19.707031 -23.316406 21.222656 -22.164062 22.007812 -19.761719 L 31.625 -19.761719 C 30.109375 -26.191406 24.570312 -30.265625 17.09375 -30.265625 C 7.789062 -30.265625 1.671875 -24.097656 1.671875 -15.003906 C 1.671875 -5.542969 7.839844 0.628906 17.09375 0.628906 Z M 17.09375 0.628906 "/></g></g></g><g fill="#423000" fill-opacity="1"><g transform="translate(271.471137, 135.774452)"><g><path d="M 11.65625 0 L 11.65625 -12.492188 C 11.65625 -16.519531 12.335938 -18.871094 13.851562 -20.335938 C 14.898438 -21.328125 16.414062 -21.902344 18.871094 -21.902344 L 20.542969 -21.902344 L 20.542969 -30.265625 L 19.238281 -30.265625 C 16.101562 -30.265625 13.644531 -29.429688 11.65625 -26.453125 L 11.65625 -29.640625 L 2.875 -29.640625 L 2.875 0 Z M 11.65625 0 "/></g></g></g><g fill="#423000" fill-opacity="1"><g transform="translate(292.903437, 135.774452)"><g><path d="M 7.265625 -31.679688 C 9.984375 -31.679688 12.234375 -33.351562 12.234375 -36.175781 C 12.234375 -38.945312 9.984375 -40.722656 7.265625 -40.722656 C 4.546875 -40.722656 2.300781 -38.945312 2.300781 -36.175781 C 2.300781 -33.351562 4.546875 -31.679688 7.265625 -31.679688 Z M 11.65625 0 L 11.65625 -29.640625 L 2.875 -29.640625 L 2.875 0 Z M 11.65625 0 "/></g></g></g><g fill="#423000" fill-opacity="1"><g transform="translate(307.435587, 135.774452)"><g><path d="M 19.238281 -30.265625 C 16.101562 -30.265625 13.644531 -29.429688 11.65625 -26.453125 L 11.65625 -29.640625 L 2.875 -29.640625 L 2.875 10.246094 L 11.65625 10.246094 L 11.65625 -3.1875 C 13.644531 -0.210938 16.101562 0.628906 19.238281 0.628906 C 26.816406 0.628906 32.148438 -5.75 32.148438 -14.792969 C 32.148438 -23.890625 26.816406 -30.265625 19.238281 -30.265625 Z M 16.78125 -22.792969 C 20.699219 -22.792969 23.261719 -19.5 23.261719 -14.792969 C 23.261719 -10.140625 20.699219 -6.847656 16.78125 -6.847656 C 12.910156 -6.847656 10.296875 -10.035156 10.296875 -14.792969 C 10.296875 -19.601562 12.910156 -22.792969 16.78125 -22.792969 Z M 16.78125 -22.792969 "/></g></g></g><g fill="#423000" fill-opacity="1"><g transform="translate(341.361369, 135.774452)"><g><path d="M 19.027344 0 L 19.027344 -7.109375 L 15.734375 -7.109375 C 14.21875 -7.109375 13.957031 -8.050781 13.957031 -8.886719 L 13.957031 -22.792969 L 19.082031 -22.792969 L 19.082031 -29.640625 L 13.957031 -29.640625 L 13.957031 -39.886719 L 5.175781 -39.886719 L 5.175781 -29.640625 L 1.097656 -29.640625 L 1.097656 -22.792969 L 5.175781 -22.792969 L 5.175781 -5.90625 C 5.175781 -2.144531 7.683594 0 12.023438 0 Z M 19.027344 0 "/></g></g></g></svg>